<?xml version="1.0" encoding="UTF-8"?>
<svg width="1200px" height="1200px" viewBox="0 0 1200 1200" version="1.1" xmlns="http://www.w3.org/2000/svg" xmlns:xlink="http://www.w3.org/1999/xlink">
    <!-- Generator: Sketch 54.1 (76490) - https://sketchapp.com -->
    <title>Group 9</title>
    <desc>Created with Sketch.</desc>
    <g id="Page-2" stroke="none" stroke-width="1" fill="none" fill-rule="evenodd">
        <g id="Artboard" transform="translate(-537.000000, -493.000000)">
            <g id="Group-9" transform="translate(537.000000, 493.000000)">
                <rect id="Rectangle" x="0" y="0" width="1200" height="1200"></rect>
                <g id="Group-6" transform="translate(109.000000, 244.000000)" fill-rule="nonzero">
                    <path d="M1018,18.25 C1018,8.2125 1006.2496,0 992.08,0 L872.1568,0 C857.728,0 845.2,8.2125 845.2,18.25 C844.698515,23.6409719 842.182488,28.59827 838.20924,32.0238068 C834.235993,35.4493437 829.133496,37.0603598 824.032,36.5 C813.228897,35.3099078 803.479745,43.385526 802,54.75 C802,64.7875 813.7504,73 827.92,73 L917.6896,73 C932.032,73 940.0672,64.7875 940.0672,54.75 C940.0672,44.7125 955.5328,36.5 969.9616,36.5 L992.08,36.5 C1006.2496,36.5 1018,28.2875 1018,18.25 Z" id="Path" fill="#FFFFFF"></path>
                    <path d="M903.60821,562 C945.566546,519.206596 980.800315,469.710267 1008,415.350619 L774.913113,118.149676 C766.746233,106.72419 753.929122,100 740.317656,100 C726.706191,100 713.889079,106.72419 705.7222,118.149676 L357,562 L903.60821,562 Z" id="Path" fill="#C68D55"></path>
                    <polygon id="Path" fill="#A85F1D" points="355 563 878 563 616.543273 230"></polygon>
                    <path d="M1012,408.267625 L781.242822,113.805294 C771.442334,100.078543 756.061435,92 739.727288,92 C723.393141,92 708.012242,100.078543 698.211754,113.805294 L350.00021,558.088169 C348.022601,560.587551 347.464561,564.00536 348.536301,567.054139 C349.60804,570.102919 352.146735,572.319487 355.196085,572.868885 C358.245434,573.418282 361.342168,572.217042 363.319778,569.71766 L711.617812,125.343929 C718.116103,115.829906 728.580248,110.187839 739.727288,110.187839 C750.874327,110.187839 761.338473,115.829906 767.836764,125.343929 L1003.35093,425.802716 C1006.3781,419.987971 1009.14581,414.08237 1012,408.267625 Z" id="Path" fill="#141325"></path>
                    <path d="M391.55798,50.106578 C382.066097,36.8216903 367.149172,29 351.30514,29 C335.461108,29 320.544183,36.8216903 311.0523,50.106578 L26,412.837206 C53.3074323,468.171744 88.9493175,518.537965 131.555731,562 L794,562 L391.55798,50.106578 Z" id="Path" fill="#C68D55"></path>
                    <ellipse id="Oval" fill="#4CDBC4" cx="219" cy="418" rx="65" ry="82"></ellipse>
                    <path d="M220,508 C179.169412,508 146,467.141 146,417 C146,366.859 179.169412,326 220,326 C260.830588,326 294,366.859 294,417 C294,467.141 260.830588,508 220,508 Z M220,344.2 C188.832941,344.2 163.411765,376.869 163.411765,417 C163.411765,457.131 188.832941,489.8 220,489.8 C251.167059,489.8 276.588235,457.131 276.588235,417 C276.588235,376.869 251.167059,344.2 220,344.2 Z" id="Shape" fill="#141325"></path>
                    <ellipse id="Oval" fill="#4CDBC4" cx="400" cy="418" rx="65" ry="82"></ellipse>
                    <path d="M397.070601,42.4083747 C385.896873,27.0263 368.530589,18 350.109744,18 C331.6889,18 314.322615,27.0263 303.148887,42.4083747 L20,403.666836 C22.7674907,409.571236 25.6214654,415.475636 28.6484083,421.2892 L316.55392,53.5813168 C324.429536,42.3830144 336.897916,35.7753403 350.152986,35.7753403 C363.408057,35.7753403 375.876437,42.3830144 383.752052,53.5813168 L786.681394,567.718327 C788.658853,570.217201 791.75535,571.418197 794.804466,570.868911 C797.853582,570.319625 800.392083,568.103508 801.46374,565.055348 C802.535398,562.007188 801.977401,558.590074 799.999943,556.0912 L397.070601,42.4083747 Z" id="Path" fill="#141325"></path>
                    <path d="M401,508 C360.169412,508 327,467.141 327,417 C327,366.859 360.169412,326 401,326 C441.830588,326 475,366.859 475,417 C475,467.141 441.830588,508 401,508 Z M401,344.2 C369.832941,344.2 344.411765,376.869 344.411765,417 C344.411765,457.131 369.832941,489.8 401,489.8 C432.167059,489.8 457.588235,457.131 457.588235,417 C457.588235,376.869 432.167059,344.2 401,344.2 Z" id="Shape" fill="#141325"></path>
                    <g id="Group-5" transform="translate(621.000000, 264.000000)">
                        <g id="Group" transform="translate(8.000000, 8.378867)">
                            <ellipse id="Oval" fill="#4CDBC4" cx="65" cy="104.735832" rx="65" ry="104.735832"></ellipse>
                            <path d="M61,299.544478 C56.0294373,299.544478 52,295.493024 52,290.495303 L52,82.364258 C52,77.3665362 56.0294373,73.3150821 61,73.3150821 C65.9705627,73.3150821 70,77.3665362 70,82.364258 L70,290.495303 C70,295.493024 65.9705627,299.544478 61,299.544478 Z" id="Path" fill="#141325"></path>
                            <path d="M68.8335526,155.008877 C66.4991039,155.023029 64.255334,154.062048 62.5978867,152.338213 C60.9352241,150.609035 60,148.255205 60,145.79969 C60,143.344176 60.9352241,140.990346 62.5978867,139.261168 L88.945771,111.633609 C92.3896343,108.022483 97.9732395,108.022484 101.417103,111.633609 C104.860966,115.244735 104.860966,121.099527 101.417103,124.710654 L75.0692186,152.338213 C73.4117713,154.062048 71.1680014,155.023029 68.8335526,155.008877 Z" id="Path" fill="#141325"></path>
                            <path d="M95.2001035,83.7886653 C90.3400549,83.7886653 86.400207,79.7693994 86.400207,74.8113837 C86.400207,55.1511371 63.784473,37.2863468 63.5204761,37.1068012 C59.6324375,34.1319917 58.8444681,28.5050197 61.7604972,24.5386073 C64.6765263,20.5721949 70.192313,19.7683416 74.0803519,22.7431507 C75.3123374,23.6408788 104,45.9943099 104,74.8113837 C104,79.7693994 100.060152,83.7886653 95.2001035,83.7886653 Z" id="Path" fill="#FFFFFF"></path>
                        </g>
                        <path d="M74,226.229396 C33.1694118,226.229396 0,175.46352 0,113.114698 C0,50.7658765 33.1694118,0 74,0 C114.830588,0 148,50.7658765 148,113.114698 C148,175.46352 114.830588,226.229396 74,226.229396 Z M74,18.0983517 C43.5294118,18.0983517 17.4117647,61.6248875 17.4117647,113.114698 C17.4117647,164.604509 43.5294118,208.131045 74,208.131045 C104.470588,208.131045 130.588235,164.604509 130.588235,113.114698 C130.588235,61.6248875 104.470588,18.0983517 74,18.0983517 Z" id="Shape" fill="#141325"></path>
                    </g>
                    <g id="Group-5-Copy" transform="translate(802.000000, 264.000000)">
                        <g id="Group" transform="translate(8.000000, 8.378867)">
                            <ellipse id="Oval" fill="#4CDBC4" cx="65" cy="104.735832" rx="65" ry="104.735832"></ellipse>
                            <path d="M61,299.544478 C56.0294373,299.544478 52,295.493024 52,290.495303 L52,82.364258 C52,77.3665362 56.0294373,73.3150821 61,73.3150821 C65.9705627,73.3150821 70,77.3665362 70,82.364258 L70,290.495303 C70,295.493024 65.9705627,299.544478 61,299.544478 Z" id="Path" fill="#141325"></path>
                            <path d="M68.8335526,155.008877 C66.4991039,155.023029 64.255334,154.062048 62.5978867,152.338213 C60.9352241,150.609035 60,148.255205 60,145.79969 C60,143.344176 60.9352241,140.990346 62.5978867,139.261168 L88.945771,111.633609 C92.3896343,108.022483 97.9732395,108.022484 101.417103,111.633609 C104.860966,115.244735 104.860966,121.099527 101.417103,124.710654 L75.0692186,152.338213 C73.4117713,154.062048 71.1680014,155.023029 68.8335526,155.008877 Z" id="Path" fill="#141325"></path>
                            <path d="M95.2001035,83.7886653 C90.3400549,83.7886653 86.400207,79.7693994 86.400207,74.8113837 C86.400207,55.1511371 63.784473,37.2863468 63.5204761,37.1068012 C59.6324375,34.1319917 58.8444681,28.5050197 61.7604972,24.5386073 C64.6765263,20.5721949 70.192313,19.7683416 74.0803519,22.7431507 C75.3123374,23.6408788 104,45.9943099 104,74.8113837 C104,79.7693994 100.060152,83.7886653 95.2001035,83.7886653 Z" id="Path" fill="#FFFFFF"></path>
                        </g>
                        <path d="M74,226.229396 C33.1694118,226.229396 0,175.46352 0,113.114698 C0,50.7658765 33.1694118,0 74,0 C114.830588,0 148,50.7658765 148,113.114698 C148,175.46352 114.830588,226.229396 74,226.229396 Z M74,18.0983517 C43.5294118,18.0983517 17.4117647,61.6248875 17.4117647,113.114698 C17.4117647,164.604509 43.5294118,208.131045 74,208.131045 C104.470588,208.131045 130.588235,164.604509 130.588235,113.114698 C130.588235,61.6248875 104.470588,18.0983517 74,18.0983517 Z" id="Shape" fill="#141325"></path>
                    </g>
                    <path d="M127.300793,562 C61.3804175,726 362.143794,726 516.830283,726 C671.516771,726 950.306689,726 906.359772,562 L127.300793,562 Z" id="Path" fill="#4CDBC4"></path>
                    <path d="M1013.34412,571 L8.6558821,571 C3.87537042,571 0,566.970563 0,562 C0,557.029437 3.87537042,553 8.6558821,553 L1013.34412,553 C1018.12463,553 1022,557.029437 1022,562 C1022,566.970563 1018.12463,571 1013.34412,571 Z" id="Path" fill="#141325"></path>
                    <path d="M214.5,571 C209.80558,571 206,566.970563 206,562 L206,436 C206,431.029437 209.80558,427 214.5,427 C219.19442,427 223,431.029437 223,436 L223,562 C223,566.970563 219.19442,571 214.5,571 Z" id="Path" fill="#141325"></path>
                    <path d="M396.5,571 C391.80558,571 388,566.970563 388,562 L388,436 C388,431.029437 391.80558,427 396.5,427 C401.19442,427 405,431.029437 405,436 L405,562 C405,566.970563 401.19442,571 396.5,571 Z" id="Path" fill="#141325"></path>
                    <path d="M249.204783,425.999886 C244.347319,425.999886 240.409567,422.007449 240.409567,417.082528 C240.409567,388.190289 220.268521,381.413097 220.004664,381.413097 C215.390074,379.837122 212.90929,374.766727 214.463678,370.088053 C216.018067,365.409379 221.019012,362.894143 225.633603,364.470117 C226.952885,364.470117 258,375.884335 258,417.974264 C257.546677,422.547988 253.738525,426.022922 249.204783,425.999886 Z" id="Path" fill="#FFFFFF"></path>
                    <path d="M430.861161,426 L429.795839,426 C427.656563,425.828938 425.6854,424.781332 424.354976,423.108367 C423.024553,421.435403 422.45485,419.287951 422.782465,417.180909 C426.06721,388.607055 408.045503,378.994246 407.246511,378.553291 C405.404617,377.647134 404.008315,376.041501 403.3734,374.099533 C402.738484,372.157564 402.918592,370.043315 403.872989,368.234955 C405.847572,364.455399 410.495704,362.929292 414.348661,364.79551 C415.591538,365.412846 443.023594,379.258819 438.495973,418.856536 C438.138183,422.814252 434.859442,425.881985 430.861161,426 L430.861161,426 Z" id="Path" fill="#FFFFFF"></path>
                    <path d="M578.791493,372.999963 C576.353494,373.007592 574.049068,371.830729 572.548764,369.811823 L458.879073,223.612803 C456.01611,219.822901 456.473011,214.342804 459.919528,211.133509 C461.551659,209.587163 463.723752,208.826079 465.912667,209.033564 C468.101582,209.241049 470.108925,210.398296 471.451236,212.226586 L585.120927,358.425606 C587.98389,362.215507 587.526989,367.695604 584.080472,370.904899 C582.589735,372.204327 580.727751,372.941894 578.791493,372.999963 Z" id="Path" fill="#FFFFFF" opacity="0.5"></path>
                    <path d="M417.084522,172.999537 C414.39942,173.026996 411.832187,171.831685 410.033948,169.716769 L355.950886,105.885176 C352.963624,102.02331 353.461991,96.3313615 357.06866,93.1188575 C361.002091,89.8888266 366.615246,90.4047511 369.966052,94.3043014 L424.049114,158.135895 C427.036376,161.99776 426.538009,167.689709 422.93134,170.902213 C421.246212,172.250819 419.195571,172.986409 417.084522,172.999537 Z" id="Path" fill="#FFFFFF" opacity="0.5"></path>
                    <path d="M890.080948,352.997407 C887.399886,352.985038 884.856311,351.756501 883.111101,349.630999 L752.949205,185.859796 C751.487537,183.980127 750.803634,181.569528 751.048915,179.161713 C751.294196,176.753898 752.448424,174.547511 754.256051,173.031052 C758.132634,169.861936 763.715616,170.465081 766.888899,174.395812 L897.050795,338.167014 C898.512463,340.046684 899.196366,342.457282 898.951085,344.865097 C898.705804,347.272913 897.551576,349.479299 895.743949,350.995759 C894.141447,352.339643 892.135602,353.04863 890.080948,352.997407 Z" id="Path" fill="#FFFFFF" opacity="0.5"></path>
                </g>
            </g>
        </g>
    </g>
</svg>